PathFileType	4	(X/Y/Z)	 s10c0103.trc
DataRate	CameraRate	NumFrames	NumMarkers	Units	OrigDataRate	OrigDataStartFrame	OrigNumFrames
200	200	4	50	mm	200	751	2000
Frame#	Time	racr			lacr			c7			jug			rlel			rdr			llel			ldr			s2			lic			ric			lasi			rasi			rpsi			lpsi			rgt			lgt			rth1			rth2			rth3			rth4			rlfc			rmfc			rsh1			rsh2			rsh3			rsh4			rlmal			rmmal			rcal			rtoe			rmt5			lth1			lth2			lth4			lth3			llfc			lmfc			llmal			lmmal			lcal			lmt5			lsh1			lsh2			lsh3			lsh4			ltoe			SBIKE			LBIKE			RBIKE			
		X1	Y1	Z1	X2	Y2	Z2	X3	Y3	Z3	X4	Y4	Z4	X5	Y5	Z5	X6	Y6	Z6	X7	Y7	Z7	X8	Y8	Z8	X9	Y9	Z9	X10	Y10	Z10	X11	Y11	Z11	X12	Y12	Z12	X13	Y13	Z13	X14	Y14	Z14	X15	Y15	Z15	X16	Y16	Z16	X17	Y17	Z17	X18	Y18	Z18	X19	Y19	Z19	X20	Y20	Z20	X21	Y21	Z21	X22	Y22	Z22	X23	Y23	Z23	X24	Y24	Z24	X25	Y25	Z25	X26	Y26	Z26	X27	Y27	Z27	X28	Y28	Z28	X29	Y29	Z29	X30	Y30	Z30	X31	Y31	Z31	X32	Y32	Z32	X33	Y33	Z33	X34	Y34	Z34	X35	Y35	Z35	X36	Y36	Z36	X37	Y37	Z37	X38	Y38	Z38	X39	Y39	Z39	X40	Y40	Z40	X41	Y41	Z41	X42	Y42	Z42	X43	Y43	Z43	X44	Y44	Z44	X45	Y45	Z45	X46	Y46	Z46	X47	Y47	Z47	X48	Y48	Z48	X49	Y49	Z49	X50	Y50	Z50	
751	3.7550	460.630205	1296.285151	-86.424789	418.469283	1298.643207	-392.378597	390.477578	1349.826685	-220.453779	403.405082	1205.677399	-230.535649	514.486557	1060.287510	42.862907	644.254745	878.344112	-9.376124	482.320475	1023.268007	-448.001417	657.213942	886.622548	-369.506044	-98.013952	1092.310040	-176.867106	35.356928	1146.730672	-345.763049	96.364466	1106.761580	-59.104357	85.419070	1061.287138	-331.011702	100.808558	1025.563732	-78.319669	-51.539240	1143.634967	-117.022688	-61.879664	1164.854799	-225.727127	-4.285625	982.697137	-12.160104	-22.161355	1015.980951	-391.633354	65.813716	857.642837	3.186024	127.066325	795.555293	-15.755572	147.015130	712.842333	-28.261049	157.512453	815.872161	-24.567538	204.511924	626.048569	-49.261024	180.542570	610.759834	-162.073666	159.270515	519.280047	-13.419279	175.551128	432.437190	-23.982479	147.659844	350.678504	-25.858813	205.998001	432.755179	-47.880766	136.614147	247.622218	-37.337325	162.422469	261.278037	-116.969826	87.970368	238.845444	-88.827423	323.427513	179.784919	-85.143423	236.968229	163.837688	-24.611119	104.601291	957.133804	-403.082790	188.839609	963.496283	-382.438102	192.220980	995.392659	-363.996693	269.019139	924.717550	-376.295244	377.196323	883.341031	-345.234208	366.287711	867.114106	-220.120147	109.963774	618.308248	-364.873204	120.415388	604.693369	-283.256670	51.380161	628.586185	-323.704612	130.379759	470.568338	-388.176128	293.788828	799.475845	-382.549194	254.904574	721.736499	-368.574731	180.826727	673.146507	-372.345720	274.844579	707.249257	-339.448341	201.685777	423.267703	-330.655165	-204.052701	832.810111	-223.313283	-78.226405	82.024145	-423.591310	-102.545874	80.477167	-24.314880	
752	3.7600	459.030807	1298.760695	-88.383785	418.242184	1297.197363	-394.780513	390.710235	1350.433807	-222.138958	403.412017	1207.166048	-231.975246	517.012228	1063.629833	40.439244	644.517129	878.550664	-9.345318	479.365648	1020.204957	-450.226473	656.748704	886.942996	-369.775281	-97.685537	1093.379301	-175.585127	34.671225	1148.158675	-344.972697	98.189604	1107.635839	-59.324134	85.367680	1062.606238	-331.218583	102.043956	1026.390013	-78.483510	-49.557594	1143.686067	-117.639850	-60.910238	1165.715086	-224.213120	-3.029980	983.526871	-11.291822	-23.302077	1018.504651	-391.141055	65.136128	858.235060	4.490541	125.120993	794.944431	-14.516750	143.442227	711.714642	-26.614637	155.829232	814.552583	-23.803623	199.106935	623.605394	-48.149129	174.278647	609.518283	-161.169008	153.127900	517.441970	-12.285728	168.649880	430.479641	-22.698765	139.921239	348.952277	-24.974858	199.397820	430.550131	-46.251214	129.916985	245.544985	-36.974750	156.031031	259.151371	-116.313974	81.553642	238.466881	-88.526519	315.597847	173.881825	-85.544088	228.724301	159.869303	-24.931796	104.156881	961.430732	-402.856158	188.317532	969.766690	-382.604758	190.923783	1001.799257	-364.212441	269.499189	933.200771	-376.803257	379.464286	894.992189	-346.133239	370.798629	878.305371	-220.145360	117.465894	623.606626	-364.801429	128.197338	609.995461	-282.988408	58.146651	632.302484	-323.676230	139.419765	475.093362	-387.533336	298.495426	809.859927	-382.876124	261.304102	731.332113	-369.298451	187.800268	681.069553	-371.931391	281.474381	716.653075	-340.184670	210.907933	428.535523	-330.188507	-204.066984	832.848667	-223.303829	-78.227003	82.050176	-423.573590	-102.559907	80.525109	-24.286771	
753	3.7650	457.232982	1301.172408	-90.115786	418.100365	1295.692322	-397.045786	390.941110	1350.873600	-223.631437	403.601037	1208.462086	-233.305063	519.248641	1066.503858	37.853499	644.885135	878.798287	-9.501769	476.636872	1017.096092	-452.154609	656.324190	887.236920	-369.984255	-96.601894	1093.465199	-173.638186	34.319696	1149.280920	-344.351532	99.825949	1108.412351	-59.656124	85.349756	1063.773370	-331.361189	103.106774	1027.163745	-78.799657	-48.906937	1143.578476	-114.352201	-63.526222	1167.610714	-222.584254	-1.947369	984.428167	-10.856446	-24.206870	1020.753339	-390.765520	64.371791	858.871601	5.847875	123.203043	794.612127	-13.001920	140.049445	710.924991	-24.885768	154.047025	813.642524	-22.999131	194.196770	621.681757	-46.702627	168.769782	608.462181	-160.295798	147.206666	516.133179	-11.236153	162.094671	428.941223	-21.485548	132.496759	347.813215	-24.208969	193.068921	428.777768	-44.776819	123.066969	244.087921	-36.768089	149.285578	257.851068	-115.645862	74.983958	238.362215	-88.455353	307.580892	168.641110	-85.926427	220.440090	156.302684	-25.198256	103.689570	965.594917	-402.692737	187.745590	975.957846	-382.777777	189.690863	1007.986943	-364.254688	269.735897	941.354288	-377.744044	381.442667	906.143378	-347.176894	375.058144	889.052804	-220.705148	124.230092	628.138960	-364.427378	135.644372	614.998751	-282.652923	64.540341	635.141779	-323.349573	148.401602	479.021502	-386.937333	302.725459	820.043668	-383.135314	267.081149	740.726914	-370.145137	193.990102	689.707747	-372.411363	287.871057	726.042277	-342.073317	220.342810	433.487430	-329.514355	-204.076468	832.870586	-223.284396	-78.227393	82.046724	-423.562457	-102.537639	80.476018	-24.272690	
754	3.7700	455.311809	1303.443081	-91.686406	418.183721	1294.274393	-399.250454	391.273530	1351.256460	-225.018291	404.022944	1210.140841	-235.267356	521.089586	1068.983270	34.886041	645.253466	878.892446	-9.734584	473.794921	1014.028736	-453.465154	655.983187	887.510855	-370.146549	-93.480117	1094.347987	-169.925441	34.292794	1150.215430	-343.855802	101.265861	1109.185964	-60.042576	85.410075	1064.569345	-331.513686	104.779251	1028.212088	-77.846770	-52.976157	1149.009465	-111.302617	-63.309174	1168.651174	-220.664023	-1.096733	985.463159	-10.012998	-24.979419	1022.836298	-390.443316	63.416791	859.665810	7.077264	121.561473	794.410247	-11.653899	136.936763	710.555648	-23.185798	152.523313	813.087327	-21.893505	189.667099	620.217661	-45.117151	164.043913	607.758081	-159.413756	141.604869	515.189352	-10.334063	155.889623	427.894747	-20.461864	125.557196	346.984051	-23.532068	187.059462	427.480380	-43.416238	116.201399	243.137656	-36.641977	140.964313	255.985036	-115.265329	68.478527	238.890886	-88.639162	299.237034	163.745341	-86.347140	211.907174	153.330596	-25.662104	103.090070	969.666142	-402.492667	186.990932	981.546891	-382.896266	188.647490	1013.968669	-364.007361	269.894543	949.180322	-378.875967	382.822966	916.978957	-348.400204	378.736329	899.061518	-221.592586	130.888262	632.199160	-363.897050	142.456105	619.839108	-282.317715	70.650960	637.316307	-322.991907	157.349171	482.534030	-386.366585	306.501707	829.738910	-383.423381	272.051314	749.782880	-371.283641	199.428933	697.889681	-372.774249	293.481526	734.885387	-343.718902	230.022891	438.379442	-329.071789	-204.096020	832.870593	-223.289568	-78.222064	82.035635	-423.541069	-102.543729	80.525025	-24.260051	
